<svg width="166" height="43" viewBox="0 0 166 43" fill="none" xmlns="http://www.w3.org/2000/svg">
<rect x="53" y="10" width="32" height="32" rx="16" fill="#F4EAD7"/>
<rect x="53" y="10" width="32" height="32" rx="16" fill="url(#paint0_linear_6_178)"/>
<path d="M74.8202 32.1399L73.2314 16.9573C73.2314 16.9573 67.0974 26.0461 61.5882 29.4605C51.0229 36.0085 44.0737 37.2501 44.0737 37.2501" stroke="#1E7B9D" stroke-width="0.8" stroke-linecap="round"/>
<path d="M19.328 20.384V29.664C18.5387 30.4747 17.4827 31.1253 16.16 31.616C14.8587 32.0853 13.4933 32.32 12.064 32.32C9.97333 32.32 8.17067 31.8613 6.656 30.944C5.14133 30.0267 3.97867 28.704 3.168 26.976C2.37867 25.248 1.984 23.1893 1.984 20.8C1.984 18.4107 2.37867 16.352 3.168 14.624C3.97867 12.896 5.14133 11.5733 6.656 10.656C8.17067 9.73867 9.97333 9.28 12.064 9.28C13.6213 9.28 15.008 9.49333 16.224 9.92C17.4613 10.3467 18.464 10.9547 19.232 11.744C19.168 11.9573 19.0507 12.1387 18.88 12.288C18.7307 12.4373 18.5813 12.512 18.432 12.512C18.2187 12.512 17.984 12.416 17.728 12.224C16.2773 11.1147 14.368 10.56 12 10.56C9.22667 10.56 7.09333 11.4453 5.6 13.216C4.128 14.9867 3.392 17.5147 3.392 20.8C3.392 24.0853 4.13867 26.6133 5.632 28.384C7.12533 30.1547 9.248 31.04 12 31.04C13.2587 31.04 14.4 30.8587 15.424 30.496C16.4693 30.1333 17.3227 29.6107 17.984 28.928V21.664H12.32C11.9573 21.664 11.7013 21.568 11.552 21.376C11.4027 21.184 11.328 20.8533 11.328 20.384H19.328ZM31.0085 14.176C31.7338 14.176 32.3098 14.2827 32.7365 14.496C33.1845 14.688 33.4085 14.9547 33.4085 15.296C33.4085 15.4453 33.3765 15.584 33.3125 15.712C33.2485 15.84 33.1632 15.9253 33.0565 15.968C32.5658 15.6267 31.8298 15.456 30.8485 15.456C29.8245 15.456 28.8965 15.7547 28.0645 16.352C27.2325 16.9493 26.5712 17.76 26.0805 18.784C25.6112 19.808 25.3765 20.9387 25.3765 22.176V32H24.0325V14.4H25.3765V17.856C25.9098 16.768 26.6885 15.8827 27.7125 15.2C28.7365 14.5173 29.8352 14.176 31.0085 14.176ZM42.893 32.32C40.4183 32.32 38.5517 31.552 37.293 30.016C36.0343 28.48 35.405 26.1973 35.405 23.168C35.405 17.1093 37.901 14.08 42.893 14.08C47.885 14.08 50.381 17.1093 50.381 23.168C50.381 26.1973 49.7517 28.48 48.493 30.016C47.2343 31.552 45.3677 32.32 42.893 32.32ZM42.893 31.104C44.9837 31.104 46.5303 30.4533 47.533 29.152C48.5357 27.8507 49.037 25.856 49.037 23.168C49.037 20.5013 48.525 18.5173 47.501 17.216C46.4983 15.9147 44.9623 15.264 42.893 15.264C40.8023 15.264 39.2557 15.9147 38.253 17.216C37.2503 18.496 36.749 20.48 36.749 23.168C36.749 25.856 37.2503 27.8507 38.253 29.152C39.2557 30.4533 40.8023 31.104 42.893 31.104Z" fill="#1E7B9D"/>
<path d="M101.232 27.936C101.232 28.9387 101.307 29.7067 101.456 30.24C101.627 30.752 101.915 31.1573 102.32 31.456C102.299 31.6053 102.192 31.7653 102 31.936C101.829 32.0853 101.659 32.16 101.488 32.16C101.061 32.16 100.699 31.8293 100.4 31.168C100.101 30.5067 99.9307 29.6853 99.888 28.704C99.0987 29.8347 98.064 30.72 96.784 31.36C95.504 32 94.128 32.32 92.656 32.32C91.696 32.32 90.832 32.1173 90.064 31.712C89.296 31.3067 88.688 30.752 88.24 30.048C87.8133 29.3227 87.6 28.512 87.6 27.616C87.6 23.6053 91.696 21.4293 99.888 21.088V20.064C99.888 16.8427 98.2773 15.232 95.056 15.232C92.688 15.232 90.6507 16.0853 88.944 17.792C88.8373 17.8987 88.7093 17.952 88.56 17.952C88.3893 17.952 88.2187 17.888 88.048 17.76C87.8773 17.632 87.7387 17.4613 87.632 17.248C88.528 16.2453 89.6373 15.4667 90.96 14.912C92.2827 14.3573 93.68 14.08 95.152 14.08C97.0933 14.08 98.5867 14.6027 99.632 15.648C100.699 16.6933 101.232 18.1653 101.232 20.064V27.936ZM92.816 31.168C94.1173 31.168 95.3867 30.7947 96.624 30.048C97.8613 29.3013 98.9493 28.2667 99.888 26.944V22.24C96.1547 22.3893 93.392 22.9013 91.6 23.776C89.8293 24.6507 88.944 25.92 88.944 27.584C88.944 28.6507 89.296 29.5147 90 30.176C90.7253 30.8373 91.664 31.168 92.816 31.168ZM113.54 14.176C114.265 14.176 114.841 14.2827 115.268 14.496C115.716 14.688 115.94 14.9547 115.94 15.296C115.94 15.4453 115.908 15.584 115.844 15.712C115.78 15.84 115.694 15.9253 115.588 15.968C115.097 15.6267 114.361 15.456 113.38 15.456C112.356 15.456 111.428 15.7547 110.596 16.352C109.764 16.9493 109.102 17.76 108.612 18.784C108.142 19.808 107.908 20.9387 107.908 22.176V32H106.564V14.4H107.908V17.856C108.441 16.768 109.22 15.8827 110.244 15.2C111.268 14.5173 112.366 14.176 113.54 14.176ZM131.888 27.936C131.888 28.9387 131.963 29.7067 132.112 30.24C132.283 30.752 132.571 31.1573 132.976 31.456C132.955 31.6053 132.848 31.7653 132.656 31.936C132.486 32.0853 132.315 32.16 132.144 32.16C131.718 32.16 131.355 31.8293 131.056 31.168C130.758 30.5067 130.587 29.6853 130.544 28.704C129.755 29.8347 128.72 30.72 127.44 31.36C126.16 32 124.784 32.32 123.312 32.32C122.352 32.32 121.488 32.1173 120.72 31.712C119.952 31.3067 119.344 30.752 118.896 30.048C118.47 29.3227 118.256 28.512 118.256 27.616C118.256 23.6053 122.352 21.4293 130.544 21.088V20.064C130.544 16.8427 128.934 15.232 125.712 15.232C123.344 15.232 121.307 16.0853 119.6 17.792C119.494 17.8987 119.366 17.952 119.216 17.952C119.046 17.952 118.875 17.888 118.704 17.76C118.534 17.632 118.395 17.4613 118.288 17.248C119.184 16.2453 120.294 15.4667 121.616 14.912C122.939 14.3573 124.336 14.08 125.808 14.08C127.75 14.08 129.243 14.6027 130.288 15.648C131.355 16.6933 131.888 18.1653 131.888 20.064V27.936ZM123.472 31.168C124.774 31.168 126.043 30.7947 127.28 30.048C128.518 29.3013 129.606 28.2667 130.544 26.944V22.24C126.811 22.3893 124.048 22.9013 122.256 23.776C120.486 24.6507 119.6 25.92 119.6 27.584C119.6 28.6507 119.952 29.5147 120.656 30.176C121.382 30.8373 122.32 31.168 123.472 31.168ZM151.14 28.544C151.14 29.4827 151.183 30.1653 151.268 30.592C151.353 31.0187 151.524 31.4133 151.78 31.776C151.716 31.8827 151.599 31.968 151.428 32.032C151.257 32.1173 151.097 32.16 150.948 32.16C150.543 32.16 150.244 31.8933 150.052 31.36C149.881 30.8053 149.796 29.9307 149.796 28.736V20.064C149.796 18.3787 149.444 17.1413 148.74 16.352C148.036 15.5627 146.937 15.168 145.444 15.168C144.335 15.168 143.183 15.4453 141.988 16C140.793 16.5333 139.705 17.2693 138.724 18.208V32H137.38V18.784C137.38 17.8027 137.369 17.0133 137.348 16.416C137.348 15.7973 137.316 15.392 137.252 15.2C137.209 15.008 137.124 14.8587 136.996 14.752C137.316 14.432 137.647 14.272 137.988 14.272C138.265 14.272 138.457 14.4427 138.564 14.784C138.671 15.104 138.724 15.6587 138.724 16.448V16.864C139.748 15.9893 140.868 15.3067 142.084 14.816C143.3 14.3253 144.495 14.08 145.668 14.08C147.503 14.08 148.868 14.5813 149.764 15.584C150.681 16.5653 151.14 18.0693 151.14 20.096V28.544ZM164.975 30.496C165.231 30.6453 165.359 30.8373 165.359 31.072C165.359 31.2213 165.317 31.3707 165.231 31.52C165.167 31.648 165.082 31.744 164.975 31.808C164.613 32 164.218 32.128 163.791 32.192C163.365 32.2773 162.767 32.32 161.999 32.32C160.719 32.32 159.685 31.9147 158.895 31.104C158.127 30.272 157.743 29.1733 157.743 27.808V15.552H154.415V14.4H157.743V9.6H159.087V14.4H164.527V15.552H159.087V27.52C159.087 28.6933 159.354 29.6 159.887 30.24C160.442 30.8587 161.221 31.168 162.223 31.168C163.29 31.168 164.207 30.944 164.975 30.496Z" fill="#1E7B9D"/>
<path d="M81.9999 32.5L79.8783 17C79.8783 17 74 24.5 71 27C68.6878 28.9268 64.5 31.5 61.5 33C58.3823 34.5589 55.8741 35.4562 51.5 37" stroke="#1E7B9D" stroke-width="0.8" stroke-linecap="round"/>
<defs>
<linearGradient id="paint0_linear_6_178" x1="77.7956" y1="16.9217" x2="61.9384" y2="30.8393" gradientUnits="userSpaceOnUse">
<stop stop-color="#C2FEF3"/>
<stop offset="0.657397" stop-color="white"/>
<stop offset="1" stop-color="#F9E7CC"/>
</linearGradient>
</defs>
</svg>
