<svg width="120" height="32" viewBox="0 0 120 32" fill="none" xmlns="http://www.w3.org/2000/svg">
<rect x="38.4022" y="6.7713" width="23.0413" height="23.2159" rx="11.5207" fill="#F4EAD7"/>
<rect x="38.4022" y="6.7713" width="23.0413" height="23.2159" rx="11.5207" fill="url(#paint0_linear_6_157)"/>
<path d="M52.5294 22.3612L51.0494 11.5804C51.0494 11.5804 46.3066 18.3689 42.4196 21.1151C34.9653 26.3815 30.3029 27.6823 30.3029 27.6823" stroke="#1E7B9D" stroke-width="0.773862" stroke-linecap="round"/>
<path d="M58.599 22.1939L57.119 11.4131C57.119 11.4131 52.3763 18.2016 48.4892 20.9478C41.0349 26.2142 36.3725 27.515 36.3725 27.515" stroke="#1E7B9D" stroke-width="0.773862" stroke-linecap="round"/>
<path d="M14.0224 14.5726V21.3052C13.4497 21.8934 12.6836 22.3654 11.724 22.7214C10.7799 23.0619 9.78936 23.2322 8.75238 23.2322C7.23561 23.2322 5.92778 22.8994 4.8289 22.2339C3.73002 21.5684 2.88651 20.6088 2.29837 19.3551C1.72571 18.1015 1.43938 16.6079 1.43938 14.8744C1.43938 13.141 1.72571 11.6474 2.29837 10.3938C2.88651 9.14013 3.73002 8.18054 4.8289 7.51502C5.92778 6.8495 7.23561 6.51674 8.75238 6.51674C9.88222 6.51674 10.8882 6.67151 11.7704 6.98105C12.6681 7.2906 13.3956 7.7317 13.9527 8.30436C13.9063 8.45913 13.8212 8.59069 13.6974 8.69903C13.589 8.80737 13.4807 8.86154 13.3723 8.86154C13.2176 8.86154 13.0473 8.79189 12.8616 8.6526C11.8091 7.84778 10.4239 7.44537 8.70595 7.44537C6.69391 7.44537 5.14618 8.08768 4.06278 9.37229C2.99485 10.6569 2.46088 12.491 2.46088 14.8744C2.46088 17.2579 3.00259 19.092 4.08599 20.3766C5.1694 21.6612 6.70938 22.3035 8.70595 22.3035C9.61911 22.3035 10.4471 22.172 11.19 21.9089C11.9484 21.6457 12.5675 21.2665 13.0473 20.7713V15.5013H8.93811C8.67499 15.5013 8.48927 15.4316 8.38093 15.2923C8.27259 15.153 8.21842 14.9131 8.21842 14.5726H14.0224ZM22.4965 10.0688C23.0228 10.0688 23.4406 10.1461 23.7502 10.3009C24.0752 10.4402 24.2377 10.6337 24.2377 10.8813C24.2377 10.9897 24.2145 11.0903 24.1681 11.1831C24.1216 11.276 24.0597 11.3379 23.9823 11.3689C23.6264 11.1212 23.0924 10.9974 22.3805 10.9974C21.6375 10.9974 20.9643 11.2141 20.3607 11.6474C19.7571 12.0808 19.2773 12.6689 18.9213 13.4118C18.5808 14.1548 18.4105 14.9751 18.4105 15.8727V23H17.4355V10.2313H18.4105V12.7386C18.7975 11.9492 19.3624 11.3069 20.1053 10.8117C20.8482 10.3164 21.6453 10.0688 22.4965 10.0688ZM31.1187 23.2322C29.3233 23.2322 27.9691 22.675 27.0559 21.5606C26.1428 20.4463 25.6862 18.7902 25.6862 16.5924C25.6862 12.1969 27.497 9.99912 31.1187 9.99912C34.7404 9.99912 36.5512 12.1969 36.5512 16.5924C36.5512 18.7902 36.0946 20.4463 35.1815 21.5606C34.2683 22.675 32.914 23.2322 31.1187 23.2322ZM31.1187 22.35C32.6355 22.35 33.7576 21.8779 34.485 20.9338C35.2124 19.9897 35.5761 18.5426 35.5761 16.5924C35.5761 14.6578 35.2047 13.2184 34.4618 12.2743C33.7343 11.3302 32.62 10.8581 31.1187 10.8581C29.6019 10.8581 28.4798 11.3302 27.7524 12.2743C27.025 13.2029 26.6612 14.6423 26.6612 16.5924C26.6612 18.5426 27.025 19.9897 27.7524 20.9338C28.4798 21.8779 29.6019 22.35 31.1187 22.35Z" fill="#1E7B9D"/>
<path d="M72.4943 20.0516C72.4943 20.779 72.5485 21.3362 72.6568 21.7231C72.7806 22.0946 72.9896 22.3886 73.2836 22.6053C73.2682 22.7137 73.1908 22.8298 73.0515 22.9536C72.9277 23.0619 72.8038 23.1161 72.68 23.1161C72.3705 23.1161 72.1074 22.8762 71.8907 22.3964C71.674 21.9166 71.5502 21.3207 71.5192 20.6088C70.9466 21.4291 70.1959 22.0714 69.2673 22.5357C68.3387 23 67.3404 23.2322 66.2724 23.2322C65.576 23.2322 64.9491 23.0851 64.392 22.7911C63.8348 22.497 63.3937 22.0946 63.0687 21.5838C62.7591 21.0576 62.6043 20.4695 62.6043 19.8194C62.6043 16.9097 65.576 15.331 71.5192 15.0834V14.3405C71.5192 12.0034 70.3507 10.8349 68.0136 10.8349C66.2957 10.8349 64.8176 11.454 63.5794 12.6922C63.502 12.7695 63.4092 12.8082 63.3008 12.8082C63.177 12.8082 63.0532 12.7618 62.9294 12.6689C62.8055 12.5761 62.7049 12.4523 62.6276 12.2975C63.2776 11.5701 64.0824 11.0051 65.042 10.6027C66.0016 10.2003 67.0153 9.99912 68.0833 9.99912C69.4917 9.99912 70.5751 10.3783 71.3335 11.1367C72.1074 11.8951 72.4943 12.963 72.4943 14.3405V20.0516ZM66.3885 22.3964C67.3326 22.3964 68.2535 22.1255 69.1512 21.5838C70.0489 21.0421 70.8382 20.2915 71.5192 19.3319V15.9192C68.8107 16.0275 66.8064 16.399 65.5063 17.0335C64.2217 17.6681 63.5794 18.589 63.5794 19.7962C63.5794 20.5701 63.8348 21.1969 64.3455 21.6767C64.8718 22.1565 65.5528 22.3964 66.3885 22.3964ZM81.4235 10.0688C81.9497 10.0688 82.3676 10.1461 82.6772 10.3009C83.0022 10.4402 83.1647 10.6337 83.1647 10.8813C83.1647 10.9897 83.1415 11.0903 83.0951 11.1831C83.0486 11.276 82.9867 11.3379 82.9093 11.3689C82.5534 11.1212 82.0194 10.9974 81.3074 10.9974C80.5645 10.9974 79.8913 11.2141 79.2877 11.6474C78.684 12.0808 78.2042 12.6689 77.8483 13.4118C77.5078 14.1548 77.3375 14.9751 77.3375 15.8727V23H76.3625V10.2313H77.3375V12.7386C77.7245 11.9492 78.2894 11.3069 79.0323 10.8117C79.7752 10.3164 80.5723 10.0688 81.4235 10.0688ZM94.7353 20.0516C94.7353 20.779 94.7894 21.3362 94.8978 21.7231C95.0216 22.0946 95.2305 22.3886 95.5246 22.6053C95.5091 22.7137 95.4317 22.8298 95.2925 22.9536C95.1686 23.0619 95.0448 23.1161 94.921 23.1161C94.6115 23.1161 94.3483 22.8762 94.1317 22.3964C93.915 21.9166 93.7912 21.3207 93.7602 20.6088C93.1875 21.4291 92.4369 22.0714 91.5083 22.5357C90.5796 23 89.5813 23.2322 88.5134 23.2322C87.8169 23.2322 87.1901 23.0851 86.6329 22.7911C86.0758 22.497 85.6347 22.0946 85.3096 21.5838C85.0001 21.0576 84.8453 20.4695 84.8453 19.8194C84.8453 16.9097 87.8169 15.331 93.7602 15.0834V14.3405C93.7602 12.0034 92.5917 10.8349 90.2546 10.8349C88.5366 10.8349 87.0586 11.454 85.8204 12.6922C85.743 12.7695 85.6501 12.8082 85.5418 12.8082C85.418 12.8082 85.2942 12.7618 85.1703 12.6689C85.0465 12.5761 84.9459 12.4523 84.8685 12.2975C85.5186 11.5701 86.3234 11.0051 87.283 10.6027C88.2426 10.2003 89.2563 9.99912 90.3243 9.99912C91.7327 9.99912 92.8161 10.3783 93.5745 11.1367C94.3483 11.8951 94.7353 12.963 94.7353 14.3405V20.0516ZM88.6295 22.3964C89.5736 22.3964 90.4945 22.1255 91.3922 21.5838C92.2899 21.0421 93.0792 20.2915 93.7602 19.3319V15.9192C91.0517 16.0275 89.0474 16.399 87.7473 17.0335C86.4627 17.6681 85.8204 18.589 85.8204 19.7962C85.8204 20.5701 86.0758 21.1969 86.5865 21.6767C87.1127 22.1565 87.7937 22.3964 88.6295 22.3964ZM108.702 20.4927C108.702 21.1737 108.733 21.669 108.795 21.9785C108.857 22.288 108.981 22.5744 109.167 22.8375C109.12 22.9149 109.035 22.9768 108.911 23.0232C108.787 23.0851 108.671 23.1161 108.563 23.1161C108.269 23.1161 108.052 22.9226 107.913 22.5357C107.789 22.1333 107.727 21.4987 107.727 20.632V14.3405C107.727 13.1178 107.472 12.2201 106.961 11.6474C106.45 11.0748 105.653 10.7885 104.57 10.7885C103.765 10.7885 102.929 10.9897 102.063 11.3921C101.196 11.779 100.407 12.313 99.6946 12.994V23H98.7195V13.4118C98.7195 12.6999 98.7118 12.1272 98.6963 11.6939C98.6963 11.245 98.6731 10.951 98.6266 10.8117C98.5957 10.6724 98.5338 10.564 98.4409 10.4866C98.6731 10.2545 98.913 10.1384 99.1606 10.1384C99.3618 10.1384 99.5011 10.2622 99.5785 10.5099C99.6559 10.742 99.6946 11.1444 99.6946 11.7171V12.0189C100.437 11.3843 101.25 10.8891 102.132 10.5331C103.014 10.1771 103.881 9.99912 104.732 9.99912C106.063 9.99912 107.054 10.3628 107.704 11.0903C108.37 11.8022 108.702 12.8934 108.702 14.3637V20.4927ZM118.74 21.9089C118.925 22.0172 119.018 22.1565 119.018 22.3267C119.018 22.4351 118.987 22.5434 118.925 22.6518C118.879 22.7446 118.817 22.8143 118.74 22.8607C118.477 23 118.19 23.0929 117.881 23.1393C117.571 23.2012 117.138 23.2322 116.581 23.2322C115.652 23.2322 114.901 22.9381 114.329 22.35C113.772 21.7463 113.493 20.9493 113.493 19.9587V11.067H111.079V10.2313H113.493V6.7489H114.468V10.2313H118.415V11.067H114.468V19.7498C114.468 20.601 114.661 21.2588 115.048 21.7231C115.451 22.172 116.016 22.3964 116.743 22.3964C117.517 22.3964 118.183 22.2339 118.74 21.9089Z" fill="#1E7B9D"/>
<defs>
<linearGradient id="paint0_linear_6_157" x1="56.2561" y1="11.793" x2="44.7633" y2="21.8041" gradientUnits="userSpaceOnUse">
<stop stop-color="#C2FEF3"/>
<stop offset="0.657397" stop-color="white"/>
<stop offset="1" stop-color="#F9E7CC"/>
</linearGradient>
</defs>
</svg>
